<?xml version="1.0" encoding="utf-8"?>
<!-- Generator: Adobe Illustrator 27.7.0, SVG Export Plug-In . SVG Version: 6.00 Build 0)  -->
<svg version="1.1" id="Layer_1" xmlns="http://www.w3.org/2000/svg" xmlns:xlink="http://www.w3.org/1999/xlink" x="0px" y="0px"
	 viewBox="0 0 1920 1920" style="enable-background:new 0 0 1920 1920;" xml:space="preserve">
<style type="text/css">
	.st0{fill:#FFFFFF;}
	.st1{fill:#800000;}
	.st2{fill:#008000;}
	.st3{fill:#FFFF00;}
	.st4{fill:#00FF00;}
	.st5{fill:#000080;}
	.st6{fill:#FF0000;}
	.st7{fill:#FF2A2A;}
	.st8{fill:#1A1A1A;}
</style>
<rect x="0" y="0" class="st0" width="1920" height="1920"/>
<g id="layer1">
	<g id="g1389" transform="translate(0,-12)">
		<circle id="path737" class="st1" cx="596.8" cy="452.4" r="13.4"/>
		<path id="rect739" class="st2" d="M650.5,439h697.2c7.4,0,13.4,6,13.4,13.5l0,0c0,7.5-6,13.5-13.4,13.5H650.5
			c-7.4,0-13.4-6-13.4-13.5l0,0C637.1,445,643.1,439,650.5,439z"/>
		<path id="rect796" class="st2" d="M595.9,493h270c7.5,0,13.5,6,13.5,13.5l0,0c0,7.5-6,13.5-13.5,13.5h-270
			c-7.5,0-13.5-6-13.5-13.5l0,0C582.4,499,588.5,493,595.9,493z"/>
		<path id="rect798" class="st3" d="M917.9,493h216c7.5,0,13.5,6,13.5,13.5l0,0c0,7.5-6,13.5-13.5,13.5h-216
			c-7.5,0-13.5-6-13.5-13.5l0,0C904.4,499,910.4,493,917.9,493z"/>
		<path id="rect852" class="st4" d="M1186.2,493h162c7.5,0,13.5,6,13.5,13.5l0,0c0,7.5-6,13.5-13.5,13.5h-162
			c-7.5,0-13.5-6-13.5-13.5l0,0C1172.7,499,1178.7,493,1186.2,493z"/>
		<path id="rect906" class="st5" d="M596.6,546h81c7.5,0,13.5,6,13.5,13.5l0,0c0,7.5-6,13.5-13.5,13.5h-81c-7.5,0-13.5-6-13.5-13.5
			l0,0C583.1,552,589.1,546,596.6,546z"/>
		<path id="rect960" class="st6" d="M729.5,546h405c7.5,0,13.5,6,13.5,13.5l0,0c0,7.5-6,13.5-13.5,13.5h-405
			c-7.5,0-13.5-6-13.5-13.5l0,0C716,552,722.1,546,729.5,546z"/>
		<path id="rect1014" class="st2" d="M1186.4,546h108c7.5,0,13.5,6,13.5,13.5l0,0c0,7.5-6,13.5-13.5,13.5h-108
			c-7.5,0-13.5-6-13.5-13.5l0,0C1172.9,552,1178.9,546,1186.4,546z"/>
		<path id="rect1016" class="st1" d="M1347.6,546.2L1347.6,546.2c7.4,0,13.4,6,13.4,13.4l0,0c0,7.4-6,13.4-13.4,13.4l0,0
			c-7.4,0-13.4-6-13.4-13.4l0,0C1334.2,552.2,1340.2,546.2,1347.6,546.2z"/>
		<path id="rect1018" class="st1" d="M596.8,600h750.8c7.4,0,13.4,6,13.4,13.5l0,0c0,7.5-6,13.5-13.4,13.5H596.8
			c-7.4,0-13.4-6-13.4-13.5l0,0C583.4,606,589.4,600,596.8,600z"/>
		<path id="rect1020" class="st1" d="M596.8,653.5L596.8,653.5c7.4,0,13.4,6,13.4,13.4l0,0c0,7.4-6,13.4-13.4,13.4l0,0
			c-7.4,0-13.4-6-13.4-13.4l0,0C583.4,659.5,589.4,653.5,596.8,653.5z"/>
		<path id="rect1022" class="st1" d="M649.8,653h189c7.5,0,13.5,6,13.5,13.5l0,0c0,7.5-6,13.5-13.5,13.5h-189
			c-7.5,0-13.5-6-13.5-13.5l0,0C636.3,659,642.4,653,649.8,653z"/>
		<path id="rect1024" class="st2" d="M890.7,653h324c7.5,0,13.5,6,13.5,13.5l0,0c0,7.5-6,13.5-13.5,13.5h-324
			c-7.5,0-13.5-6-13.5-13.5l0,0C877.2,659,883.2,653,890.7,653z"/>
		<path id="rect1026" class="st2" d="M1266.9,653h81c7.5,0,13.5,6,13.5,13.5l0,0c0,7.5-6,13.5-13.5,13.5h-81
			c-7.5,0-13.5-6-13.5-13.5l0,0C1253.4,659,1259.5,653,1266.9,653z"/>
		<path id="rect1028" class="st6" d="M596.8,707h27c7.5,0,13.5,6,13.5,13.5l0,0c0,7.5-6,13.5-13.5,13.5h-27c-7.5,0-13.5-6-13.5-13.5
			l0,0C583.3,713,589.3,707,596.8,707z"/>
		<path id="rect1030" class="st7" d="M676.4,707h243c7.5,0,13.5,6,13.5,13.5l0,0c0,7.5-6,13.5-13.5,13.5h-243
			c-7.5,0-13.5-6-13.5-13.5l0,0C662.9,713,669,707,676.4,707z"/>
		<path id="rect1084" class="st2" d="M971.6,707h189c7.5,0,13.5,6,13.5,13.5l0,0c0,7.5-6,13.5-13.5,13.5h-189
			c-7.5,0-13.5-6-13.5-13.5l0,0C958.1,713,964.1,707,971.6,707z"/>
		<path id="rect1086" class="st5" d="M1213.1,707h135c7.5,0,13.5,6,13.5,13.5l0,0c0,7.5-6,13.5-13.5,13.5h-135
			c-7.5,0-13.5-6-13.5-13.5l0,0C1199.6,713,1205.6,707,1213.1,707z"/>
		<path id="rect1140" class="st5" d="M596.8,760.8L596.8,760.8c7.4,0,13.4,6,13.4,13.4l0,0c0,7.4-6,13.4-13.4,13.4l0,0
			c-7.4,0-13.4-6-13.4-13.4l0,0C583.4,766.8,589.4,760.8,596.8,760.8z"/>
		<path id="rect1142" class="st5" d="M650.5,761h429c7.4,0,13.4,6,13.4,13.5l0,0c0,7.5-6,13.5-13.4,13.5h-429
			c-7.4,0-13.4-6-13.4-13.5l0,0C637.1,767,643.1,761,650.5,761z"/>
		<path id="rect1144" class="st2" d="M1132.4,761h216c7.5,0,13.5,6,13.5,13.5l0,0c0,7.5-6,13.5-13.5,13.5h-216
			c-7.5,0-13.5-6-13.5-13.5l0,0C1118.9,767,1124.9,761,1132.4,761z"/>
		<path id="rect1146" class="st2" d="M595.8,814H866c7.4,0,13.4,6,13.4,13.4v0.2c0,7.4-6,13.4-13.4,13.4H595.8
			c-7.4,0-13.4-6-13.4-13.4v-0.2C582.4,820,588.4,814,595.8,814z"/>
		<path id="rect1148" class="st3" d="M917.6,814h270.2c7.4,0,13.4,6,13.4,13.4v0.2c0,7.4-6,13.4-13.4,13.4H917.6
			c-7.4,0-13.4-6-13.4-13.4v-0.2C904.2,820,910.2,814,917.6,814z"/>
		<path id="rect1150" class="st3" d="M1240.1,814h54.2c7.4,0,13.4,6,13.4,13.4v0.2c0,7.4-6,13.4-13.4,13.4h-54.2
			c-7.4,0-13.4-6-13.4-13.4v-0.2C1226.7,820,1232.7,814,1240.1,814z"/>
		<path id="rect1152" class="st1" d="M1347.6,814.4L1347.6,814.4c7.4,0,13.4,6,13.4,13.4v0c0,7.4-6,13.4-13.4,13.4l0,0
			c-7.4,0-13.4-6-13.4-13.4v0C1334.2,820.4,1340.2,814.4,1347.6,814.4z"/>
	</g>
	<g id="g1744" transform="translate(-5.5,-19.5)">
		<path id="path1208" class="st8" d="M634.9,1026.5l-70.7,318.1c0,0-106,106-70.7,141.4c35.3,35.3,919,35.3,954.3,0
			c35.3-35.3-70.7-141.4-70.7-141.4l-70.7-318.1H634.9z"/>
		<path id="path1360" class="st8" d="M581.5,1062.2l-106.1-70.7l106.1-106h778l106.1,106l-106.1,70.7v-70.7h-778V1062.2z"/>
		<path id="path1362" class="st8" d="M580.8,859.9c0,0-44.6-3-84.9-36.5c0,0-52.3-54.8-19.7-73.2c32.6-18.3,32.6-18.3,60.9-6.2
			c12,21.3,7.7,51.8,7.7,51.8C540.5,826.4,580.8,859.9,580.8,859.9L580.8,859.9z"/>
		<path id="path1391" class="st0" d="M758.6,1026.5h424.1c0,0,0,176.7-212.1,176.7S758.6,1026.5,758.6,1026.5z"/>
		<path id="rect1501" class="st0" d="M765.7,1217.4L765.7,1217.4c9.8,0,17.7,7.9,17.7,17.7l0,0c0,9.8-7.9,17.7-17.7,17.7l0,0
			c-9.8,0-17.7-7.9-17.7-17.7l0,0C748,1225.3,755.9,1217.4,765.7,1217.4z"/>
		<path id="rect1503" class="st0" d="M836.4,1217.4L836.4,1217.4c9.8,0,17.7,7.9,17.7,17.7l0,0c0,9.8-7.9,17.7-17.7,17.7l0,0
			c-9.8,0-17.7-7.9-17.7-17.7l0,0C818.7,1225.3,826.6,1217.4,836.4,1217.4z"/>
		<path id="rect1505" class="st0" d="M907,1217.4L907,1217.4c9.8,0,17.7,7.9,17.7,17.7l0,0c0,9.8-7.9,17.7-17.7,17.7l0,0
			c-9.8,0-17.7-7.9-17.7-17.7l0,0C889.4,1225.3,897.3,1217.4,907,1217.4z"/>
		<path id="rect1507" class="st0" d="M977.7,1217.4L977.7,1217.4c9.8,0,17.7,7.9,17.7,17.7l0,0c0,9.8-7.9,17.7-17.7,17.7l0,0
			c-9.8,0-17.7-7.9-17.7-17.7l0,0C960.1,1225.3,968,1217.4,977.7,1217.4z"/>
		<path id="rect1509" class="st0" d="M1048.4,1217.4L1048.4,1217.4c9.8,0,17.7,7.9,17.7,17.7l0,0c0,9.8-7.9,17.7-17.7,17.7l0,0
			c-9.8,0-17.7-7.9-17.7-17.7l0,0C1030.8,1225.3,1038.7,1217.4,1048.4,1217.4z"/>
		<path id="rect1511" class="st0" d="M1119.1,1217.4L1119.1,1217.4c9.8,0,17.7,7.9,17.7,17.7l0,0c0,9.8-7.9,17.7-17.7,17.7l0,0
			c-9.8,0-17.7-7.9-17.7-17.7l0,0C1101.4,1225.3,1109.4,1217.4,1119.1,1217.4z"/>
		<path id="rect1513" class="st0" d="M1189.8,1217.4L1189.8,1217.4c9.8,0,17.7,7.9,17.7,17.7l0,0c0,9.8-7.9,17.7-17.7,17.7l0,0
			c-9.8,0-17.7-7.9-17.7-17.7l0,0C1172.1,1225.3,1180,1217.4,1189.8,1217.4z"/>
		<path id="rect1515" class="st0" d="M1260.5,1217.4L1260.5,1217.4c9.8,0,17.7,7.9,17.7,17.7l0,0c0,9.8-7.9,17.7-17.7,17.7l0,0
			c-9.8,0-17.7-7.9-17.7-17.7l0,0C1242.8,1225.3,1250.7,1217.4,1260.5,1217.4z"/>
		<path id="rect1517" class="st0" d="M765.7,1266.9L765.7,1266.9c9.8,0,17.7,7.9,17.7,17.7l0,0c0,9.8-7.9,17.7-17.7,17.7l0,0
			c-9.8,0-17.7-7.9-17.7-17.7l0,0C748,1274.8,755.9,1266.9,765.7,1266.9z"/>
		<path id="rect1519" class="st0" d="M836.4,1266.9L836.4,1266.9c9.8,0,17.7,7.9,17.7,17.7l0,0c0,9.8-7.9,17.7-17.7,17.7l0,0
			c-9.8,0-17.7-7.9-17.7-17.7l0,0C818.7,1274.8,826.6,1266.9,836.4,1266.9z"/>
		<path id="rect1521" class="st0" d="M907,1266.9L907,1266.9c9.8,0,17.7,7.9,17.7,17.7l0,0c0,9.8-7.9,17.7-17.7,17.7l0,0
			c-9.8,0-17.7-7.9-17.7-17.7l0,0C889.4,1274.8,897.3,1266.9,907,1266.9z"/>
		<path id="rect1523" class="st0" d="M977.7,1266.9L977.7,1266.9c9.8,0,17.7,7.9,17.7,17.7l0,0c0,9.8-7.9,17.7-17.7,17.7l0,0
			c-9.8,0-17.7-7.9-17.7-17.7l0,0C960.1,1274.8,968,1266.9,977.7,1266.9z"/>
		<path id="rect1525" class="st0" d="M1048.4,1266.9L1048.4,1266.9c9.8,0,17.7,7.9,17.7,17.7l0,0c0,9.8-7.9,17.7-17.7,17.7l0,0
			c-9.8,0-17.7-7.9-17.7-17.7l0,0C1030.8,1274.8,1038.7,1266.9,1048.4,1266.9z"/>
		<path id="rect1527" class="st0" d="M1119.1,1266.9L1119.1,1266.9c9.8,0,17.7,7.9,17.7,17.7l0,0c0,9.8-7.9,17.7-17.7,17.7l0,0
			c-9.8,0-17.7-7.9-17.7-17.7l0,0C1101.4,1274.8,1109.4,1266.9,1119.1,1266.9z"/>
		<path id="rect1529" class="st0" d="M1189.8,1266.9L1189.8,1266.9c9.8,0,17.7,7.9,17.7,17.7l0,0c0,9.8-7.9,17.7-17.7,17.7l0,0
			c-9.8,0-17.7-7.9-17.7-17.7l0,0C1172.1,1274.8,1180,1266.9,1189.8,1266.9z"/>
		<path id="rect1531" class="st0" d="M1260.5,1266.9L1260.5,1266.9c9.8,0,17.7,7.9,17.7,17.7l0,0c0,9.8-7.9,17.7-17.7,17.7l0,0
			c-9.8,0-17.7-7.9-17.7-17.7l0,0C1242.8,1274.8,1250.7,1266.9,1260.5,1266.9z"/>
		<path id="rect1542" class="st0" d="M765.7,1316.3L765.7,1316.3c9.8,0,17.7,7.9,17.7,17.7l0,0c0,9.8-7.9,17.7-17.7,17.7l0,0
			c-9.8,0-17.7-7.9-17.7-17.7l0,0C748,1324.3,755.9,1316.3,765.7,1316.3z"/>
		<path id="rect1544" class="st0" d="M836.4,1316.3L836.4,1316.3c9.8,0,17.7,7.9,17.7,17.7l0,0c0,9.8-7.9,17.7-17.7,17.7l0,0
			c-9.8,0-17.7-7.9-17.7-17.7l0,0C818.7,1324.3,826.6,1316.3,836.4,1316.3z"/>
		<path id="rect1546" class="st0" d="M907,1316.3L907,1316.3c9.8,0,17.7,7.9,17.7,17.7l0,0c0,9.8-7.9,17.7-17.7,17.7l0,0
			c-9.8,0-17.7-7.9-17.7-17.7l0,0C889.4,1324.3,897.3,1316.3,907,1316.3z"/>
		<path id="rect1548" class="st0" d="M977.7,1316.3L977.7,1316.3c9.8,0,17.7,7.9,17.7,17.7l0,0c0,9.8-7.9,17.7-17.7,17.7l0,0
			c-9.8,0-17.7-7.9-17.7-17.7l0,0C960.1,1324.3,968,1316.3,977.7,1316.3z"/>
		<path id="rect1550" class="st0" d="M1048.4,1316.3L1048.4,1316.3c9.8,0,17.7,7.9,17.7,17.7l0,0c0,9.8-7.9,17.7-17.7,17.7l0,0
			c-9.8,0-17.7-7.9-17.7-17.7l0,0C1030.8,1324.3,1038.7,1316.3,1048.4,1316.3z"/>
		<path id="rect1552" class="st0" d="M1119.1,1316.3L1119.1,1316.3c9.8,0,17.7,7.9,17.7,17.7l0,0c0,9.8-7.9,17.7-17.7,17.7l0,0
			c-9.8,0-17.7-7.9-17.7-17.7l0,0C1101.4,1324.3,1109.4,1316.3,1119.1,1316.3z"/>
		<path id="rect1554" class="st0" d="M1189.8,1316.3L1189.8,1316.3c9.8,0,17.7,7.9,17.7,17.7l0,0c0,9.8-7.9,17.7-17.7,17.7l0,0
			c-9.8,0-17.7-7.9-17.7-17.7l0,0C1172.1,1324.3,1180,1316.3,1189.8,1316.3z"/>
		<path id="rect1556" class="st0" d="M1260.5,1316.3L1260.5,1316.3c9.8,0,17.7,7.9,17.7,17.7l0,0c0,9.8-7.9,17.7-17.7,17.7l0,0
			c-9.8,0-17.7-7.9-17.7-17.7l0,0C1242.8,1324.3,1250.7,1316.3,1260.5,1316.3z"/>
		<ellipse id="path1642" class="st0" cx="970.7" cy="1397.6" rx="190.9" ry="17.7"/>
		<path id="rect1646" class="st0" d="M687.5,1204.3L687.5,1204.3c11.6,0,21,9.4,21,21v168c0,11.6-9.4,21-21,21l0,0
			c-11.6,0-21-9.4-21-21v-168C666.5,1213.7,675.9,1204.3,687.5,1204.3z"/>
	</g>
</g>
</svg>
